<svg width="25" height="24" viewBox="0 0 25 24" fill="none" xmlns="http://www.w3.org/2000/svg">
<g id="phone">
<path id="Icon" d="M9.04629 8.85323C9.74229 10.3028 10.6911 11.6615 11.8927 12.8631C13.0942 14.0646 14.4529 15.0134 15.9025 15.7094C16.0272 15.7693 16.0895 15.7992 16.1684 15.8222C16.4488 15.904 16.793 15.8453 17.0305 15.6752C17.0973 15.6274 17.1544 15.5702 17.2687 15.4559C17.6184 15.1063 17.7932 14.9315 17.9689 14.8172C18.6318 14.3862 19.4864 14.3862 20.1493 14.8172C20.3251 14.9315 20.4999 15.1063 20.8495 15.4559L21.0443 15.6508C21.5758 16.1822 21.8415 16.448 21.9859 16.7333C22.2729 17.3009 22.2729 17.9712 21.9859 18.5387C21.8415 18.8241 21.5758 19.0898 21.0443 19.6213L20.8867 19.7789C20.3571 20.3085 20.0923 20.5733 19.7322 20.7756C19.3327 21 18.7123 21.1614 18.254 21.16C17.8411 21.1588 17.5589 21.0787 16.9944 20.9185C13.961 20.0575 11.0987 18.433 8.71068 16.045C6.3227 13.6571 4.69822 10.7947 3.83725 7.76131C3.67704 7.19687 3.59694 6.91464 3.59571 6.5017C3.59435 6.04347 3.75571 5.42298 3.98013 5.02348C4.18238 4.66345 4.44719 4.39863 4.97681 3.86901L5.13445 3.71138C5.66589 3.17993 5.93161 2.91421 6.21699 2.76987C6.78455 2.4828 7.45482 2.4828 8.02238 2.76987C8.30776 2.91421 8.57348 3.17993 9.10492 3.71138L9.29979 3.90625C9.6494 4.25585 9.8242 4.43065 9.93849 4.60643C10.3695 5.26932 10.3695 6.1239 9.93849 6.78679C9.8242 6.96257 9.6494 7.13738 9.29979 7.48698C9.18548 7.60129 9.12833 7.65845 9.08048 7.72526C8.91047 7.96269 8.85177 8.30695 8.9335 8.5873C8.95649 8.6662 8.98643 8.72854 9.04629 8.85323Z" stroke="white" stroke-width="2" stroke-linecap="round" stroke-linejoin="round"/>
</g>
</svg>
